<?xml version="1.0" encoding="utf-8"?>
<!-- Generator: Adobe Illustrator 25.0.0, SVG Export Plug-In . SVG Version: 6.00 Build 0)  -->
<svg version="1.1" id="Layer_1" xmlns="http://www.w3.org/2000/svg" xmlns:xlink="http://www.w3.org/1999/xlink" x="0px" y="0px"
	 viewBox="0 0 1948.5 1299" style="enable-background:new 0 0 1948.5 1299;" xml:space="preserve">
<style type="text/css">
	.st0{fill:#2E2E2E;}
	.st1{fill:#FFFFFF;}
</style>
<g>
	<g>
		<g>
			<path class="st0" d="M974.25,280.88c0,0-47.15-14.03-82.81,26.96l-22.34,6.88c-1,0.31-1.72,1.11-1.86,2.07l-5.42,38.68l0,0
				c1.18,4.33-0.29,8.94-3.93,11.91c-4.25,3.47-11.03,7.12-20.66,6.92c-18.13-0.37-79.99-36-125.92,40.43
				c0,0,41.59,83.63,137.18,37.2c3.89-1.89,8.71-0.47,10.7,3.14c1.9,3.46,3.85,7.64,4.24,10.9c0.81,6.74-2.62,19.85,6.04,37.76
				c8.66,17.91,5.64,57.79,16.12,76.25c9.58,16.89,4.66,29.45,15.32,54.08c2,4.61,2.58,9.63,1.65,14.51
				c-2.57,13.59-4.4,42.06,22.92,49.57c36.27,9.97,48.76,0,48.76,0"/>
			<path class="st0" d="M954.16,705.81c-7.54,0-17.26-1.15-29.53-4.52c-30.31-8.33-27.76-40.06-25.26-53.32
				c0.8-4.23,0.3-8.59-1.44-12.62c-5.47-12.64-6.96-22.19-8.27-30.62c-1.27-8.15-2.37-15.18-6.89-23.15
				c-5.87-10.35-7.68-26.5-9.43-42.12c-1.52-13.57-2.95-26.39-6.79-34.33c-6.86-14.18-6.52-25.56-6.3-33.09
				c0.07-2.29,0.13-4.26-0.05-5.7c-0.27-2.24-1.64-5.69-3.86-9.72c-1.15-2.09-4.09-2.91-6.42-1.78
				c-22.33,10.85-43.67,15.59-63.43,14.09c-15.91-1.2-30.8-6.42-44.25-15.51c-22.79-15.41-33.4-36.37-33.84-37.26l-0.79-1.6
				l0.92-1.53c16.76-27.89,37.79-44.43,62.5-49.16c20.77-3.98,40.29,1.09,53.21,4.45c5.46,1.42,10.17,2.64,13.07,2.7
				c8.82,0.18,14.95-3.27,18.53-6.19c2.61-2.13,3.7-5.4,2.84-8.53l-0.18-0.65l5.51-39.35c0.31-2.2,1.93-4.06,4.12-4.73l21.46-6.61
				c18.99-21.41,41.05-27.73,56.29-29.25c16.69-1.66,28.78,1.86,29.28,2.01l-1.86,6.25l0.93-3.12l-0.92,3.12
				c-0.11-0.03-11.57-3.34-27.05-1.75c-20.59,2.12-38.21,11.44-52.38,27.72l-0.61,0.7l-22.88,7.05l-5.27,37.58
				c1.21,5.43-0.74,10.97-5.18,14.6c-4.43,3.62-11.97,7.87-22.78,7.66c-3.67-0.07-8.48-1.32-14.58-2.91
				c-26.74-6.94-71.34-18.52-107.52,40.17c2.85,5.02,13.01,21.26,31.02,33.37c28.58,19.2,62.55,19.47,100.97,0.81
				c5.44-2.64,12.15-0.62,14.97,4.49c2.69,4.88,4.25,8.95,4.62,12.09c0.23,1.91,0.16,4.12,0.09,6.66
				c-0.22,7.31-0.51,17.32,5.65,30.06c4.32,8.94,5.82,22.29,7.4,36.44c1.67,14.96,3.41,30.44,8.62,39.63
				c5.11,9,6.35,16.95,7.66,25.36c1.25,8.04,2.68,17.16,7.82,29.03c2.26,5.23,2.91,10.9,1.86,16.41
				c-2.69,14.26-3.6,39.17,20.58,45.82c33.72,9.27,45.78,0.65,45.9,0.56l4.02,5.13C975.9,701,969.61,705.81,954.16,705.81z"/>
		</g>
		<g>
			<path class="st0" d="M974.25,688.98v9.17c0,0,12.49,9.97,48.76,0c27.32-7.51,25.49-35.98,22.92-49.57
				c-0.92-4.89-0.34-9.9,1.65-14.51c10.66-24.63,5.74-37.19,15.32-54.08c10.48-18.46,7.45-58.34,16.12-76.25
				c8.66-17.91,5.24-31.02,6.04-37.76c0.39-3.26,2.33-7.45,4.24-10.9c1.98-3.6,6.81-5.03,10.7-3.14
				c95.59,46.43,137.18-37.2,137.18-37.2c-45.94-76.44-107.79-40.8-125.92-40.43c-9.62,0.2-16.41-3.45-20.66-6.92
				c-3.64-2.97-5.11-7.58-3.93-11.91l0,0l-5.42-38.68c-0.13-0.96-0.85-1.76-1.85-2.07l-22.34-6.88
				c-35.66-40.99-82.81-26.96-82.81-26.96v8.77"/>
			<path class="st0" d="M994.34,705.81c-15.45,0-21.74-4.81-22.12-5.12l-1.23-0.98v-10.74h6.52v7.31c3.81,1.86,16.9,6.34,44.64-1.28
				c24.18-6.65,23.28-31.56,20.58-45.82c-1.04-5.51-0.4-11.19,1.86-16.41c5.14-11.88,6.56-20.99,7.82-29.03
				c1.31-8.41,2.55-16.36,7.66-25.36c5.21-9.19,6.95-24.66,8.62-39.63c1.58-14.14,3.08-27.5,7.4-36.44
				c6.16-12.74,5.87-22.75,5.65-30.07c-0.08-2.55-0.14-4.75,0.09-6.66c0.38-3.14,1.93-7.21,4.62-12.09
				c2.82-5.12,9.54-7.13,14.97-4.49c38.42,18.66,72.39,18.39,100.97-0.81c18.02-12.1,28.17-28.34,31.02-33.37
				c-36.18-58.69-80.78-47.12-107.52-40.17c-6.09,1.58-10.91,2.83-14.58,2.91c-10.8,0.22-18.35-4.04-22.78-7.66
				c-4.44-3.63-6.39-9.17-5.18-14.6l-5.27-37.58l-22.88-7.05l-0.61-0.7c-14.16-16.28-31.78-25.6-52.38-27.72
				c-11.38-1.17-20.59,0.31-24.71,1.19v6.21h-6.52v-11.2l2.33-0.69c0.51-0.15,12.59-3.67,29.28-2.01
				c15.24,1.52,37.31,7.83,56.29,29.25l21.46,6.61c2.2,0.68,3.81,2.53,4.12,4.73l5.52,39.35l-0.18,0.65
				c-0.85,3.13,0.23,6.4,2.84,8.53c3.58,2.92,9.69,6.37,18.53,6.19c2.91-0.06,7.62-1.28,13.07-2.7c12.92-3.35,32.45-8.42,53.21-4.45
				c24.71,4.73,45.74,21.27,62.5,49.16l0.92,1.53l-0.79,1.6c-0.44,0.89-11.04,21.85-33.84,37.26
				c-13.45,9.09-28.34,14.31-44.25,15.51c-19.76,1.49-41.1-3.25-63.43-14.09c-2.33-1.13-5.27-0.32-6.42,1.78
				c-2.22,4.03-3.59,7.48-3.86,9.71c-0.17,1.43-0.11,3.41-0.05,5.7c0.22,7.53,0.56,18.92-6.3,33.09
				c-3.84,7.93-5.27,20.75-6.79,34.32c-1.75,15.62-3.55,31.77-9.43,42.12c-4.52,7.97-5.62,15-6.89,23.15
				c-1.31,8.43-2.8,17.98-8.27,30.62c-1.74,4.03-2.24,8.39-1.44,12.62c2.5,13.25,5.06,44.98-25.26,53.32
				C1011.59,704.67,1001.87,705.81,994.34,705.81z"/>
		</g>
	</g>
	<g>
		<g>
			<path class="st0" d="M864,320.58c-52.76-4.62-109.59-36.35-168.43-81.4c41.34,61.48,97.63,102.03,166.82,124.51L864,320.58z"/>
			<path class="st0" d="M865.48,368.13l-4.1-1.33c-35.21-11.44-67.1-27.63-94.79-48.11c-28.39-21-53.2-47.14-73.73-77.68
				l-11.08-16.47l15.76,12.07c65.63,50.25,120.17,76.66,166.74,80.74l3.09,0.27L865.48,368.13z M710.56,254.44
				c37.75,48.96,87.68,84.15,148.73,104.8l1.33-35.71c-24.84-2.64-51.05-11.02-80.03-25.57
				C758.76,286.99,735.71,272.68,710.56,254.44z"/>
		</g>
		<g>
			<path class="st0" d="M1084.5,320.58c52.76-4.62,109.59-36.35,168.43-81.4c-41.34,61.48-97.63,102.03-166.82,124.51L1084.5,320.58
				z"/>
			<path class="st0" d="M1083.01,368.13l-1.89-50.52l3.09-0.27c46.56-4.08,101.1-30.49,166.74-80.74l15.76-12.07L1255.63,241
				c-20.54,30.54-45.35,56.68-73.73,77.68c-27.69,20.48-59.58,36.67-94.79,48.11L1083.01,368.13z M1087.87,323.53l1.34,35.71
				c61.05-20.65,110.98-55.84,148.73-104.8c-25.15,18.24-48.2,32.55-70.04,43.52C1138.92,312.51,1112.7,320.89,1087.87,323.53z"/>
		</g>
	</g>
	<g>
		<g>
			<path class="st1" d="M1053.22,480.54c0,0,4.19-25.63,17.97-29.07c3.08-0.77,6.21,0.8,7.37,3.75c1.61,4.07,1.85,11.13-7.21,20.78
				C1056.37,491.97,1053.22,480.54,1053.22,480.54z"/>
		</g>
		<g>
			<path class="st1" d="M895.27,480.54c0,0-4.27-26.11-18.36-29.16c-2.83-0.61-5.72,0.87-6.86,3.53c-1.71,4.02-2.21,11.19,7.08,21.1
				C892.12,491.97,895.27,480.54,895.27,480.54z"/>
		</g>
	</g>
	<g>
		<g>
			<path class="st1" d="M974.25,622.86c0,0-19.9-3.59-32.41,3.91c-2.86,1.72-6.29,2.22-9.48,1.27l0,0
				c-3.09-0.92-6.46,0.26-8.21,2.97c-3.23,5-6.3,14.77,0.53,31.21c3.49,8.41,7.17,14.9,10.55,19.83
				c5.96,8.7,15.84,13.89,26.39,13.89h12.62"/>
		</g>
		<g>
			<path class="st1" d="M974.25,622.86c0,0,19.9-3.59,32.41,3.91c2.86,1.72,6.29,2.22,9.48,1.27l0,0c3.09-0.92,6.46,0.26,8.21,2.97
				c3.23,5,6.3,14.77-0.53,31.21c-3.49,8.41-7.17,14.9-10.55,19.83c-5.96,8.7-15.84,13.89-26.39,13.89h-12.62"/>
		</g>
	</g>
	<g>
		<path class="st0" d="M931.13,636.16c0,0-2.15,7.12,8.19,11.28c10.34,4.16,13.43,21.63,13.43,21.63S924.15,660.74,931.13,636.16z"
			/>
	</g>
	<g>
		<path class="st0" d="M1020.16,636.16c0,0,2.15,7.12-8.19,11.28c-10.34,4.16-13.43,21.63-13.43,21.63
			S1027.15,660.74,1020.16,636.16z"/>
	</g>
	<g>
		<path class="st0" d="M940.61,639.18c13.9,14.1,22.58,32.88,26.86,55.61l-2.92-27.28c-0.37-3.46-1.93-6.69-4.41-9.13L940.61,639.18
			z"/>
	</g>
	<g>
		<path class="st0" d="M1009.9,639.18c-13.9,14.1-22.58,32.88-26.86,55.61l2.92-27.28c0.37-3.46,1.93-6.69,4.41-9.13L1009.9,639.18z
			"/>
	</g>
	<g>
		<g>
			<path class="st0" d="M943.38,629.65c8.16-4.17,17.13-5.37,26.8-4.03l-10.17,4.08c-2.12,0.85-4.42,1.18-6.69,0.95L943.38,629.65z"
				/>
		</g>
		<g>
			<path class="st0" d="M1005.12,629.65c-8.16-4.17-17.13-5.37-26.8-4.03l10.17,4.08c2.12,0.85,4.42,1.18,6.69,0.95L1005.12,629.65z
				"/>
		</g>
	</g>
	<g>
		<path class="st1" d="M1020.19,644.22c-0.05,0.55-0.1,1.1-0.18,1.64c-0.1,0.54-0.18,1.09-0.3,1.63c-0.26,1.07-0.58,2.14-0.99,3.17
			c-0.81,2.07-1.95,4-3.32,5.76c-1.38,1.75-2.97,3.31-4.72,4.67c-0.44,0.34-0.87,0.68-1.33,0.99c-0.46,0.31-0.9,0.64-1.37,0.93
			c-0.94,0.59-1.89,1.13-2.87,1.63c0.45-0.32,0.9-0.63,1.36-0.93c0.46-0.3,0.89-0.65,1.33-0.97c0.45-0.31,0.87-0.66,1.3-0.99
			c0.44-0.33,0.85-0.69,1.26-1.05c1.65-1.43,3.19-2.97,4.52-4.69c1.35-1.7,2.47-3.57,3.37-5.55
			C1019.16,648.49,1019.78,646.38,1020.19,644.22z"/>
	</g>
	<g>
		<path class="st1" d="M931.73,644.22c0.41,2.16,1.03,4.27,1.93,6.25c0.9,1.98,2.03,3.85,3.37,5.55c1.33,1.71,2.88,3.26,4.52,4.69
			c0.41,0.36,0.82,0.72,1.26,1.05c0.43,0.33,0.85,0.68,1.3,0.99c0.44,0.32,0.87,0.66,1.33,0.97c0.46,0.3,0.91,0.61,1.36,0.93
			c-0.98-0.5-1.94-1.05-2.87-1.63c-0.47-0.28-0.92-0.61-1.37-0.93c-0.46-0.31-0.9-0.65-1.33-0.99c-1.75-1.36-3.34-2.93-4.72-4.67
			c-1.37-1.75-2.51-3.69-3.32-5.76c-0.41-1.03-0.73-2.1-0.99-3.17c-0.12-0.54-0.2-1.09-0.3-1.63
			C931.83,645.32,931.78,644.77,931.73,644.22z"/>
	</g>
	<g>
		<path class="st1" d="M854.24,374.85v15.94c0,2.65-2.87,4.3-5.16,2.97c-53.43-31.22-98.04-21.77-135.34,21.39
			c30.12-45.52,73.61-55.92,129.04-34.92l1.91,0.47c2.76,0.69,5.67-0.39,7.32-2.71L854.24,374.85z"/>
	</g>
	<g>
		<g>
			<path class="st1" d="M1098.46,374.85v15.94c0,2.65,2.87,4.3,5.16,2.97c53.43-31.22,98.04-21.77,135.34,21.39
				c-30.12-45.52-73.61-55.92-129.04-34.92l-1.91,0.47c-2.76,0.69-5.67-0.39-7.32-2.71L1098.46,374.85z"/>
		</g>
	</g>
	<g>
		<path class="st1" d="M722.61,422.93c8.36,7.21,17.11,13.91,26.58,19.33c4.75,2.68,9.62,5.11,14.69,7.04
			c5.05,1.96,10.26,3.51,15.58,4.48c5.31,1.02,10.71,1.49,16.12,1.44c5.41,0,10.82-0.61,16.16-1.59
			c10.7-2.02,21.05-5.86,31.04-10.55c-9.34,5.88-19.61,10.49-30.51,13.04c-5.44,1.31-11.03,2-16.64,2.19
			c-5.61,0.15-11.25-0.32-16.78-1.33c-5.52-1.07-10.92-2.7-16.11-4.82c-5.17-2.16-10.16-4.72-14.86-7.72
			C738.45,438.47,730.03,431.11,722.61,422.93z"/>
	</g>
	<g>
		<path class="st1" d="M1225.89,422.93c-7.42,8.17-15.84,15.54-25.28,21.5c-4.7,3-9.69,5.57-14.86,7.72
			c-5.19,2.12-10.59,3.75-16.11,4.82c-5.53,1.01-11.16,1.47-16.78,1.33c-5.61-0.19-11.2-0.88-16.64-2.19
			c-10.9-2.55-21.17-7.16-30.51-13.04c9.99,4.69,20.34,8.53,31.04,10.55c5.35,0.98,10.75,1.59,16.16,1.59
			c5.41,0.05,10.82-0.42,16.12-1.44c5.32-0.97,10.52-2.53,15.58-4.48c5.07-1.93,9.95-4.36,14.69-7.04
			C1208.78,436.84,1217.53,430.14,1225.89,422.93z"/>
	</g>
	<g>
		<path class="st1" d="M863.79,323.6l-0.7,18.73c-49.22-6.74-100.18-43.34-151.77-90.72C766.41,293.57,819.05,325.2,863.79,323.6z"
			/>
	</g>
	<g>
		<path class="st1" d="M1084.5,324.68l0.7,18.73c49.22-6.74,100.18-43.34,151.77-90.72C1181.87,294.65,1129.23,326.29,1084.5,324.68
			z"/>
	</g>
	<g>
		<path class="st0" d="M974.25,682c-0.68-4.59-1.02-9.19-1.28-13.78c-0.24-4.59-0.35-9.19-0.35-13.78c0-4.59,0.11-9.19,0.35-13.78
			c0.26-4.59,0.6-9.19,1.28-13.78c0.68,4.59,1.02,9.19,1.28,13.78c0.24,4.59,0.35,9.19,0.35,13.78c0,4.59-0.11,9.19-0.35,13.78
			C975.26,672.81,974.93,677.4,974.25,682z"/>
	</g>
	<g>
		<path class="st1" d="M1100.08,407.08v28.21l1.58-1.23c1.03-0.8,2.46-0.75,3.46,0.08c2.6,2.15,6.84,4.46,11.31,6.79
			c-4.59-4.08-8.34-7.98-9.11-11.28c0.86-2.12,6.29-3.35,11.79-4.57c-5.08,0.53-9.41,0.26-11.79-2.15
			c3.13-4.39,6.57-7.85,10.18-10.75c-3.99,0.75-7.51,2.05-10.18,4.3c1.8-5.05,4.54-9.97,8.03-14.77c-2.75,2.89-5.47,5.41-8.13,7.46
			c-1.26,0.97-3,1.11-4.34,0.27C1101.94,408.85,1101,408.02,1100.08,407.08z"/>
	</g>
	<g>
		<path class="st0" d="M1098.46,411.75l0,18.95l1.06-0.83c0.69-0.54,1.65-0.51,2.33,0.05c1.75,1.45,4.59,3,7.6,4.56
			c-3.08-2.74-5.6-5.36-6.12-7.58c0.58-1.42,4.23-2.25,7.92-3.07c-3.41,0.36-6.32,0.17-7.92-1.44c2.1-2.95,4.41-5.28,6.84-7.22
			c-2.68,0.5-5.04,1.37-6.84,2.89c1.21-3.39,3.05-6.7,5.4-9.93c-1.85,1.94-3.67,3.64-5.46,5.01c-0.85,0.65-2.01,0.74-2.92,0.18
			C1099.71,412.94,1099.09,412.38,1098.46,411.75z"/>
	</g>
	<g>
		<path class="st1" d="M854.46,407.08v28.21l-1.58-1.23c-1.03-0.8-2.46-0.75-3.46,0.08c-2.6,2.15-6.84,4.46-11.31,6.79
			c4.59-4.08,8.34-7.98,9.11-11.28c-0.86-2.12-6.29-3.35-11.79-4.57c5.08,0.53,9.41,0.26,11.79-2.15
			c-3.13-4.39-6.57-7.85-10.18-10.75c3.99,0.75,7.51,2.05,10.18,4.3c-1.8-5.05-4.54-9.97-8.03-14.77c2.75,2.89,5.47,5.41,8.13,7.46
			c1.26,0.97,3,1.11,4.34,0.27C852.59,408.85,853.53,408.02,854.46,407.08z"/>
	</g>
	<g>
		<path class="st0" d="M856.07,411.75v18.95l-1.06-0.83c-0.69-0.54-1.65-0.51-2.33,0.05c-1.75,1.45-4.59,3-7.6,4.56
			c3.08-2.74,5.6-5.36,6.12-7.58c-0.58-1.42-4.23-2.25-7.92-3.07c3.41,0.36,6.32,0.17,7.92-1.44c-2.11-2.95-4.41-5.28-6.84-7.22
			c2.68,0.5,5.04,1.37,6.84,2.89c-1.21-3.39-3.05-6.7-5.4-9.93c1.85,1.94,3.67,3.64,5.46,5.01c0.85,0.65,2.01,0.74,2.92,0.18
			C854.82,412.94,855.44,412.38,856.07,411.75z"/>
	</g>
	<g>
		<path class="st1" d="M864.01,320.85l-3.16,45.96c0.06,4.18,1.19,5.76,2.81,6.16c2.17-22.99,5.07-43.33,9.26-59.1
			C869.71,314.32,866.67,316.05,864.01,320.85z"/>
	</g>
	<g>
		<path class="st1" d="M1084.51,319.76l3.16,45.96c-0.06,4.18-1.19,5.76-2.81,6.16c-2.17-22.99-5.07-43.33-9.26-59.1
			C1078.81,313.24,1081.86,314.96,1084.51,319.76z"/>
	</g>
	<g>
		<g>
			<path class="st1" d="M908.97,456.8c4.2,5.28,7.83,11,11.21,16.87c3.32,5.9,6.31,12.01,8.8,18.36c2.46,6.36,4.46,12.95,5.63,19.77
				c0.62,3.4,0.92,6.88,1.03,10.37c0.01,0.88,0.06,1.75,0.01,2.63l-0.11,2.63l-0.51,5.1c-0.33,3.21-0.46,6.46-0.36,9.73
				c0.07,3.27,0.27,6.54,0.63,9.82c0.68,6.55,1.84,13.1,3.23,19.6c1.41,6.5,3.04,12.98,4.89,19.41c1.81,6.45,3.84,12.84,5.98,19.23
				c-3.21-5.94-5.9-12.14-8.41-18.41c-2.43-6.3-4.65-12.71-6.45-19.25c-0.91-3.27-1.72-6.57-2.42-9.91
				c-0.73-3.33-1.28-6.7-1.74-10.09c-0.89-6.78-1.25-13.71-0.54-20.66l0.52-4.93l0.11-2.4c0.05-0.8,0-1.61,0.01-2.41
				c-0.03-3.22-0.28-6.46-0.76-9.69c-0.47-3.23-1.1-6.44-1.88-9.64c-0.8-3.19-1.71-6.37-2.72-9.52c-2.08-6.28-4.47-12.51-7.23-18.59
				C915.2,468.71,912.2,462.71,908.97,456.8z"/>
		</g>
		<g>
			<path class="st1" d="M1039.53,456.8c-3.23,5.91-6.23,11.91-8.93,18.02c-2.76,6.08-5.15,12.3-7.23,18.59
				c-1.02,3.15-1.92,6.33-2.72,9.52c-0.78,3.2-1.41,6.41-1.88,9.64c-0.48,3.23-0.73,6.47-0.76,9.69c0.01,0.8-0.04,1.61,0.01,2.41
				l0.11,2.4l0.52,4.93c0.71,6.96,0.34,13.88-0.54,20.66c-0.47,3.39-1.01,6.76-1.74,10.09c-0.7,3.33-1.5,6.64-2.42,9.91
				c-1.79,6.55-4.02,12.95-6.45,19.25c-2.51,6.27-5.2,12.47-8.41,18.41c2.14-6.39,4.17-12.78,5.98-19.23
				c1.85-6.43,3.49-12.91,4.89-19.41c1.4-6.5,2.55-13.04,3.23-19.6c0.36-3.28,0.57-6.55,0.63-9.82c0.1-3.27-0.04-6.52-0.36-9.73
				l-0.51-5.1l-0.11-2.63c-0.05-0.88,0-1.75,0.01-2.63c0.11-3.49,0.41-6.97,1.03-10.37c1.17-6.82,3.17-13.41,5.63-19.77
				c2.5-6.35,5.48-12.46,8.8-18.36C1031.7,467.8,1035.33,462.08,1039.53,456.8z"/>
		</g>
	</g>
	<g>
		<path class="st1" d="M889.43,322.15c16.13-13.39,31.91-25.02,45.87-27.43c0.44-0.08,0.85-0.25,1.22-0.51
			c8.12-5.79,17.46-7.79,27.75-6.85c-9.88,3.72-18.96,8.85-27.11,15.65c-0.71,0.59-1.58,0.94-2.5,1.02
			C924.74,304.89,907.27,313.33,889.43,322.15z"/>
	</g>
	<g>
		<path class="st1" d="M1061.81,322.15c-16.13-13.39-31.91-25.02-45.87-27.43c-0.44-0.08-0.85-0.25-1.22-0.51
			c-8.12-5.79-17.46-7.79-27.75-6.85c9.88,3.72,18.96,8.85,27.11,15.65c0.71,0.59,1.58,0.94,2.5,1.02
			C1026.5,304.89,1043.97,313.33,1061.81,322.15z"/>
	</g>
	<g>
		<path class="st1" d="M974.25,610.31c-1.35-19.39-2.05-38.78-2.53-58.18c-0.52-19.39-0.71-38.78-0.72-58.18
			c0-19.39,0.2-38.78,0.71-58.18c0.48-19.39,1.19-38.78,2.54-58.18c1.36,19.39,2.07,38.78,2.54,58.18
			c0.52,19.39,0.71,38.78,0.71,58.18c-0.01,19.39-0.21,38.78-0.72,58.18C976.3,571.52,975.6,590.91,974.25,610.31z"/>
	</g>
	<g>
		<path class="st1" d="M869.07,481.56l2.63,17.38c0.13,0.87,0.59,1.66,1.27,2.21l17.06,13.65l-11.34-13.05
			c-1.76-2.03-3.18-4.33-4.19-6.82L869.07,481.56z"/>
	</g>
	<g>
		<path class="st1" d="M1079.42,481.56l-2.63,17.38c-0.13,0.87-0.59,1.66-1.27,2.21l-17.06,13.65l11.34-13.05
			c1.76-2.03,3.18-4.33,4.19-6.82L1079.42,481.56z"/>
	</g>
	<g>
		<g>
			<path class="st1" d="M974.25,287.14l-6.37,63.58c-13.61,6.76-33.35,0.46-54.83-3.17c21.41,8.71,41.94,14.54,61.21,16.15V287.14z"
				/>
		</g>
		<g>
			<path class="st1" d="M974.25,287.14l6.37,63.58c13.61,6.76,33.35,0.46,54.83-3.17c-21.41,8.71-41.94,14.54-61.21,16.15V287.14z"
				/>
		</g>
	</g>
	<g>
		<path class="st0" d="M887.93,465.29c1.1,2.46,1.59,4.94,1.4,7.42c-0.25,3.12-3.16,5.32-6.24,4.74c-3.74-0.7-7.25-2.48-10.41-5.91
			c-2.16-3.55-3.58-8.46-2.64-13.48c0.59-3.16,3.69-5.15,6.78-4.27C880.88,454.96,884.47,459.21,887.93,465.29z"/>
	</g>
	<g>
		<path class="st0" d="M1060.57,465.29c-1.1,2.46-1.59,4.94-1.4,7.42c0.25,3.12,3.16,5.32,6.24,4.74c3.74-0.7,7.25-2.48,10.41-5.91
			c2.16-3.55,3.58-8.46,2.64-13.48c-0.59-3.16-3.69-5.15-6.78-4.27C1067.61,454.96,1064.02,459.21,1060.57,465.29z"/>
	</g>
	<g>
		<g>
			<g>
				<g>
					<path class="st0" d="M606.95,1043.49H370.83l78.46-92.03l-77.87-96.74h276.49v147.81
						C647.91,1025.11,629.54,1043.49,606.95,1043.49z M403.49,1028.41h203.47c14.27,0,25.88-11.61,25.88-25.88V869.8H402.9
						l65.96,81.94L403.49,1028.41z"/>
				</g>
			</g>
			<g>
				<g>
					
						<rect x="590.47" y="940.55" transform="matrix(0.6906 -0.7232 0.7232 0.6906 -530.5179 738.5829)" class="st0" width="15.07" height="97.63"/>
				</g>
			</g>
		</g>
		<g>
			<g>
				<g>
					<path class="st0" d="M1577.67,1043.49h-236.12c-22.58,0-40.96-18.37-40.96-40.96V854.72h276.49l-77.87,96.74L1577.67,1043.49z
						 M1315.66,869.8v132.73c0,14.27,11.61,25.88,25.88,25.88h203.47l-65.37-76.68l65.96-81.94H1315.66z"/>
				</g>
			</g>
			<g>
				<g>
					
						<rect x="1301.68" y="981.83" transform="matrix(0.7232 -0.6906 0.6906 0.7232 -309.4816 1206.5367)" class="st0" width="97.63" height="15.07"/>
				</g>
			</g>
		</g>
	</g>
	<g>
		<g>
			<path class="st1" d="M1369.78,955.83c-263.69-64.6-527.38-64.6-791.07,0c-23.5,5.76-46.2-11.98-46.2-36.18v-90.09
				c0-17.36,11.99-32.39,28.9-36.32c275.22-63.9,550.43-63.9,825.65,0c16.91,3.93,28.9,18.96,28.9,36.32v90.09
				C1415.98,943.85,1393.29,961.59,1369.78,955.83z"/>
		</g>
		<g>
			<path class="st0" d="M1378.78,964.46c-3.59,0-7.21-0.43-10.79-1.31h0c-261.27-64-526.21-64-787.48,0
				c-13.48,3.3-27.48,0.29-38.39-8.27c-10.89-8.54-17.13-21.38-17.13-35.23v-90.09c0-20.96,14.28-38.91,34.74-43.66
				c137.52-31.93,276.99-48.12,414.53-48.12c137.54,0,277.01,16.19,414.53,48.12c20.45,4.75,34.74,22.7,34.74,43.66v90.09
				c0,13.84-6.24,26.68-17.13,35.23C1398.37,961.16,1388.69,964.46,1378.78,964.46z M1371.58,948.51c8.96,2.19,18.25,0.19,25.5-5.49
				c7.22-5.67,11.37-14.18,11.37-23.37v-90.09c0-13.91-9.49-25.83-23.07-28.98c-272.8-63.34-549.44-63.34-822.24,0
				c-13.58,3.15-23.07,15.07-23.07,28.98v90.09c0,9.18,4.14,17.7,11.37,23.37c7.25,5.69,16.54,7.69,25.5,5.49
				c131.82-32.29,265.5-48.66,397.33-48.66S1239.76,916.22,1371.58,948.51z"/>
		</g>
	</g>
	<g>
		<g>
			<g>
				<polygon class="st0" points="586.36,976.76 505.13,970.52 586.6,970.73 				"/>
			</g>
		</g>
		<g>
			<g>
				<polygon class="st0" points="532.64,884.8 451.21,882.12 532.61,878.77 				"/>
			</g>
		</g>
		<g>
			<g>
				<polygon class="st0" points="532.64,911.63 451.21,908.94 532.61,905.6 				"/>
			</g>
		</g>
		<g>
			<g>
				<polygon class="st0" points="606.6,998.96 525.24,994.7 606.69,992.93 				"/>
			</g>
		</g>
		<g>
			<g>
				<polygon class="st0" points="626.93,1024.98 545.74,1018.29 627.2,1018.96 				"/>
			</g>
		</g>
	</g>
	<g>
		<g>
			<g>
				<polygon class="st0" points="1361.29,976.76 1442.52,970.52 1361.05,970.73 				"/>
			</g>
		</g>
		<g>
			<g>
				<polygon class="st0" points="1415.01,884.8 1496.44,882.12 1415.04,878.77 				"/>
			</g>
		</g>
		<g>
			<g>
				<polygon class="st0" points="1415.01,911.63 1496.44,908.94 1415.04,905.6 				"/>
			</g>
		</g>
		<g>
			<g>
				<polygon class="st0" points="1341.05,998.96 1422.41,994.7 1340.96,992.93 				"/>
			</g>
		</g>
		<g>
			<g>
				<polygon class="st0" points="1320.72,1024.98 1401.91,1018.29 1320.44,1018.96 				"/>
			</g>
		</g>
	</g>
	<g>
		<g>
			<path class="st0" d="M568.49,834.08l15.35-2.92l10.24,53.82l33.26-6.33l2.38,12.51l-48.61,9.25L568.49,834.08z"/>
		</g>
		<g>
			<path class="st0" d="M656.23,818.51l15.45-2.35l10.17,66.74l-15.45,2.35L656.23,818.51z"/>
		</g>
		<g>
			<path class="st0" d="M782.98,802.43l-21.61,70.32l-15.34,1.7l-36.39-63.9l16.78-1.86l25.73,45.67l15.39-50.23L782.98,802.43z"/>
		</g>
		<g>
			<path class="st0" d="M877.53,851.12l0.76,12.52l-52.18,3.16l-4.08-67.39l50.93-3.09l0.76,12.52l-35.43,2.15l0.89,14.63l31.29-1.9
				l0.74,12.13l-31.29,1.9l0.95,15.6L877.53,851.12z"/>
		</g>
		<g>
			<path class="st0" d="M926.08,861.14c-5-1.38-9.03-3.21-12.08-5.48l5.15-11.84c2.92,2.08,6.38,3.74,10.39,4.98
				c4,1.23,8,1.82,11.98,1.77c4.44-0.06,7.71-0.76,9.81-2.11c2.1-1.35,3.14-3.11,3.11-5.3c-0.02-1.61-0.67-2.93-1.93-3.98
				c-1.27-1.04-2.89-1.87-4.86-2.49c-1.97-0.62-4.63-1.29-7.98-2.02c-5.16-1.15-9.39-2.32-12.68-3.5c-3.3-1.18-6.13-3.1-8.52-5.77
				c-2.38-2.67-3.6-6.25-3.66-10.75c-0.05-3.92,0.96-7.49,3.04-10.7c2.08-3.21,5.24-5.78,9.5-7.7c4.25-1.92,9.46-2.92,15.63-3
				c4.31-0.06,8.53,0.4,12.65,1.38c4.13,0.97,7.75,2.41,10.86,4.29l-4.67,11.93c-6.28-3.45-12.54-5.14-18.78-5.06
				c-4.37,0.06-7.59,0.81-9.66,2.25c-2.07,1.44-3.09,3.32-3.06,5.64c0.03,2.31,1.26,4.02,3.68,5.11c2.43,1.09,6.12,2.15,11.09,3.18
				c5.16,1.15,9.39,2.32,12.68,3.5c3.3,1.18,6.13,3.07,8.51,5.68c2.38,2.61,3.6,6.16,3.66,10.66c0.05,3.86-0.98,7.39-3.09,10.6
				c-2.11,3.21-5.31,5.78-9.59,7.7c-4.28,1.92-9.51,2.92-15.68,3C936.25,863.17,931.08,862.52,926.08,861.14z"/>
		</g>
		<g>
			<path class="st0" d="M1025.31,807.8l-21.59-0.71l0.42-12.72l58.8,1.92l-0.42,12.72l-21.59-0.71l-1.79,54.75l-15.62-0.51
				L1025.31,807.8z"/>
		</g>
		<g>
			<path class="st0" d="M1111.84,863.62c-5.36-3.48-9.4-7.99-12.13-13.54c-2.73-5.55-3.82-11.63-3.27-18.23
				c0.55-6.6,2.63-12.41,6.24-17.43c3.61-5.02,8.35-8.8,14.21-11.35c5.86-2.54,12.28-3.53,19.26-2.94
				c6.98,0.58,13.14,2.61,18.46,6.09c5.32,3.48,9.37,7.99,12.13,13.54c2.76,5.55,3.87,11.63,3.32,18.23
				c-0.55,6.6-2.65,12.41-6.29,17.43c-3.65,5.02-8.38,8.8-14.21,11.35c-5.83,2.55-12.23,3.53-19.22,2.95
				C1123.36,869.13,1117.19,867.1,1111.84,863.62z M1142.45,854.6c3.36-1.56,6.08-3.9,8.18-7.01c2.1-3.12,3.32-6.76,3.67-10.92
				c0.35-4.16-0.26-7.96-1.81-11.38c-1.55-3.42-3.86-6.18-6.91-8.27c-3.05-2.09-6.56-3.31-10.54-3.64
				c-3.97-0.33-7.64,0.28-10.99,1.84c-3.36,1.56-6.08,3.9-8.18,7.01c-2.1,3.12-3.32,6.76-3.67,10.92
				c-0.35,4.17,0.26,7.96,1.81,11.38c1.55,3.42,3.86,6.18,6.91,8.27c3.05,2.09,6.56,3.31,10.54,3.64
				C1135.43,856.78,1139.09,856.16,1142.45,854.6z"/>
		</g>
		<g>
			<path class="st0" d="M1221.56,874.86c-5.11-3.71-8.88-8.41-11.32-14.1c-2.44-5.69-3.2-11.84-2.3-18.47
				c0.9-6.63,3.29-12.35,7.16-17.18c3.87-4.83,8.76-8.34,14.68-10.56c5.91-2.21,12.31-2.85,19.19-1.91c5.8,0.79,10.9,2.52,15.3,5.2
				c4.4,2.68,7.94,6.14,10.6,10.4l-11.19,7.82c-3.81-5.84-9.06-9.22-15.75-10.13c-4.14-0.57-7.96-0.16-11.46,1.21
				c-3.5,1.37-6.38,3.56-8.63,6.56c-2.26,3-3.67,6.57-4.24,10.71c-0.57,4.14-0.16,7.96,1.21,11.46c1.37,3.5,3.56,6.37,6.56,8.63
				c3,2.26,6.57,3.67,10.71,4.24c6.69,0.91,12.66-0.97,17.9-5.64l8.69,10.53c-3.72,3.45-8.07,5.88-13.06,7.27
				c-4.99,1.4-10.39,1.7-16.19,0.91C1232.63,880.9,1226.67,878.58,1221.56,874.86z"/>
		</g>
		<g>
			<path class="st0" d="M1334.96,869.25l-10.64,7.63l-3.13,16.78l-15.27-2.84l12.36-66.37l15.27,2.84l-5.77,31.01l35.17-25.53
				l17.07,3.18L1347,860.41l22.26,42.21l-17.92-3.34L1334.96,869.25z"/>
		</g>
	</g>
	<g>
		<path class="st0" d="M592.64,924.07c63.16-14.84,127.24-25.95,191.76-33.55c64.52-7.66,129.51-11.66,194.52-11.94
			c65.01-0.26,130.06,3.22,194.61,10.76c64.55,7.47,128.64,18.88,191.56,34.73c-63.78-11.88-127.92-21.12-192.35-27.15
			c-64.43-5.97-129.1-8.84-193.78-8.57c-64.67,0.24-129.32,3.64-193.76,9.73C720.77,904.23,656.59,913.2,592.64,924.07z"/>
	</g>
	<g>
		<path class="st0" d="M588.02,810.29c63.16-14.84,127.24-25.95,191.76-33.55c64.52-7.66,129.51-11.66,194.52-11.94
			c65.01-0.26,130.06,3.22,194.61,10.76c64.55,7.47,128.64,18.88,191.56,34.73c-63.78-11.88-127.92-21.12-192.35-27.15
			c-64.43-5.97-129.11-8.84-193.78-8.57c-64.67,0.24-129.32,3.64-193.76,9.73C716.16,790.44,651.97,799.41,588.02,810.29z"/>
	</g>
	<g>
		<g>
			<g>
				<g>
					<polygon class="st0" points="1410.81,858.38 1385.98,849.54 1412.17,852.51 					"/>
				</g>
			</g>
			<g>
				<g>
					<polygon class="st0" points="1410.81,883.19 1385.98,874.35 1412.17,877.31 					"/>
				</g>
			</g>
			<g>
				<g>
					<polygon class="st0" points="1410.81,907.99 1385.98,899.15 1412.17,902.12 					"/>
				</g>
			</g>
		</g>
		<g>
			<g>
				<g>
					<polygon class="st0" points="536.33,852.5 564.45,849.54 537.6,858.39 					"/>
				</g>
			</g>
			<g>
				<g>
					<polygon class="st0" points="536.33,877.3 564.45,874.35 537.6,883.2 					"/>
				</g>
			</g>
			<g>
				<g>
					<polygon class="st0" points="536.33,902.11 564.45,899.15 537.6,908 					"/>
				</g>
			</g>
		</g>
	</g>
	<g>
		<g>
			<path class="st0" d="M685.05,1033.95v14.36h22.79v7.42h-22.79v18.07h-8.76v-47.19h34.45v7.35H685.05z"/>
		</g>
		<g>
			<path class="st0" d="M768.72,1073.79l-9.64-13.82c-0.4,0.05-1.01,0.07-1.82,0.07h-10.65v13.75h-8.76v-47.19h19.42
				c4.09,0,7.65,0.67,10.69,2.02c3.03,1.35,5.36,3.28,6.98,5.8c1.62,2.52,2.43,5.51,2.43,8.97c0,3.55-0.87,6.61-2.6,9.17
				c-1.73,2.56-4.21,4.47-7.45,5.73l10.85,15.51H768.72z M765.55,1036.44c-1.98-1.62-4.88-2.43-8.7-2.43h-10.25v18.81h10.25
				c3.82,0,6.72-0.82,8.7-2.46c1.98-1.64,2.97-3.97,2.97-6.98C768.52,1040.38,767.53,1038.06,765.55,1036.44z"/>
		</g>
		<g>
			<path class="st0" d="M841.13,1066.44v7.35h-35.4v-47.19h34.45v7.35H814.5v12.27h22.79v7.21H814.5v13.01H841.13z"/>
		</g>
		<g>
			<path class="st0" d="M873.59,1072.92c-3.39-1.03-6.08-2.4-8.06-4.11l3.03-6.81c1.93,1.53,4.3,2.78,7.11,3.74
				c2.81,0.97,5.63,1.45,8.46,1.45c3.51,0,6.12-0.56,7.85-1.69c1.73-1.12,2.6-2.61,2.6-4.45c0-1.35-0.48-2.46-1.45-3.34
				c-0.97-0.88-2.19-1.56-3.67-2.06c-1.48-0.49-3.51-1.06-6.07-1.69c-3.6-0.85-6.51-1.71-8.73-2.56c-2.22-0.85-4.14-2.19-5.73-4.01
				c-1.6-1.82-2.39-4.28-2.39-7.38c0-2.61,0.71-4.98,2.12-7.11c1.42-2.13,3.55-3.83,6.4-5.09c2.85-1.26,6.35-1.89,10.48-1.89
				c2.88,0,5.71,0.36,8.49,1.08c2.79,0.72,5.19,1.75,7.21,3.1l-2.76,6.81c-2.07-1.21-4.23-2.13-6.47-2.76
				c-2.25-0.63-4.43-0.94-6.54-0.94c-3.46,0-6.03,0.58-7.72,1.75c-1.69,1.17-2.53,2.72-2.53,4.65c0,1.35,0.48,2.45,1.45,3.3
				c0.97,0.85,2.19,1.53,3.67,2.02c1.48,0.5,3.51,1.06,6.07,1.69c3.51,0.81,6.38,1.65,8.63,2.53c2.25,0.88,4.17,2.21,5.76,4.01
				c1.59,1.8,2.39,4.23,2.39,7.28c0,2.61-0.71,4.97-2.12,7.08c-1.42,2.11-3.56,3.8-6.44,5.06c-2.88,1.26-6.38,1.89-10.52,1.89
				C880.5,1074.47,876.98,1073.95,873.59,1072.92z"/>
		</g>
		<g>
			<path class="st0" d="M972.46,1026.6v47.19h-8.77v-20.23h-24.41v20.23h-8.76v-47.19h8.76v19.48h24.41v-19.48H972.46z"/>
		</g>
		<g>
			<path class="st0" d="M1065.7,1073.79l-0.07-31.28l-15.51,25.89h-3.91l-15.51-25.48v30.88h-8.36v-47.19h7.21l18.74,31.28
				l18.41-31.28h7.21l0.07,47.19H1065.7z"/>
		</g>
		<g>
			<path class="st0" d="M1140.74,1066.44v7.35h-35.4v-47.19h34.45v7.35h-25.69v12.27h22.79v7.21h-22.79v13.01H1140.74z"/>
		</g>
		<g>
			<path class="st0" d="M1199.73,1062.87h-23.6l-4.65,10.92h-9.03l21.24-47.19h8.63l21.31,47.19h-9.17L1199.73,1062.87z
				 M1196.83,1055.99l-8.9-20.63l-8.83,20.63H1196.83z"/>
		</g>
		<g>
			<path class="st0" d="M1247.8,1034.01h-15.64v-7.42h40.05v7.42h-15.64v39.78h-8.76V1034.01z"/>
		</g>
	</g>
	<g>
		<path class="st1" d="M906.5,662.32c-1.6,7.15-1.63,14.54,2.47,22.52c4.37,5.57,11.88,8.94,22.76,9.94l-10.88-6.38
			c-5.95-3.49-10.24-9.24-11.87-15.95L906.5,662.32z"/>
	</g>
	<g>
		<path class="st1" d="M1041.52,662.32c1.6,7.15,1.63,14.54-2.47,22.52c-4.37,5.57-11.88,8.94-22.76,9.94l10.88-6.38
			c5.95-3.49,10.24-9.24,11.87-15.95L1041.52,662.32z"/>
	</g>
	<g>
		<g>
			<g>
				<path class="st0" d="M575.51,616.22v8.3h-39.98v-53.31h38.92v8.3h-29.02v13.86h25.74v8.15h-25.74v14.7H575.51z"/>
			</g>
			<g>
				<path class="st0" d="M612.18,623.53c-3.83-1.17-6.87-2.72-9.1-4.65l3.43-7.69c2.18,1.73,4.86,3.14,8.03,4.23
					c3.17,1.09,6.36,1.64,9.56,1.64c3.96,0,6.92-0.63,8.87-1.9c1.95-1.27,2.93-2.94,2.93-5.03c0-1.52-0.55-2.78-1.64-3.77
					c-1.09-0.99-2.48-1.76-4.15-2.32c-1.68-0.56-3.96-1.19-6.85-1.9c-4.06-0.96-7.35-1.93-9.86-2.89c-2.51-0.96-4.67-2.48-6.47-4.53
					c-1.8-2.06-2.7-4.84-2.7-8.34c0-2.94,0.8-5.62,2.4-8.03c1.6-2.41,4.01-4.33,7.24-5.75c3.22-1.42,7.17-2.13,11.84-2.13
					c3.25,0,6.45,0.41,9.6,1.22c3.15,0.81,5.86,1.98,8.15,3.5l-3.12,7.69c-2.34-1.37-4.77-2.41-7.31-3.12
					c-2.54-0.71-5-1.07-7.39-1.07c-3.91,0-6.82,0.66-8.72,1.98c-1.9,1.32-2.86,3.07-2.86,5.25c0,1.52,0.55,2.77,1.64,3.73
					c1.09,0.97,2.47,1.73,4.15,2.28c1.68,0.56,3.96,1.19,6.85,1.9c3.96,0.91,7.21,1.87,9.75,2.86c2.54,0.99,4.71,2.5,6.51,4.53
					c1.8,2.03,2.7,4.77,2.7,8.22c0,2.95-0.8,5.61-2.4,8c-1.6,2.39-4.02,4.29-7.27,5.71c-3.25,1.42-7.21,2.13-11.88,2.13
					C619.99,625.28,616.01,624.7,612.18,623.53z"/>
			</g>
			<g>
				<path class="st0" d="M687.31,579.59h-17.67v-8.38h45.24v8.38h-17.67v44.93h-9.9V579.59z"/>
			</g>
			<g>
				<path class="st0" d="M743.36,571.21h23.3c5.69,0,10.74,1.1,15.16,3.31c4.42,2.21,7.84,5.33,10.28,9.37
					c2.44,4.04,3.66,8.7,3.66,13.98c0,5.28-1.22,9.94-3.66,13.97c-2.44,4.04-5.86,7.16-10.28,9.37c-4.42,2.21-9.47,3.31-15.16,3.31
					h-23.3V571.21z M766.21,616.14c3.91,0,7.35-0.75,10.32-2.25c2.97-1.5,5.25-3.63,6.85-6.4c1.6-2.77,2.4-5.98,2.4-9.63
					s-0.8-6.87-2.4-9.63c-1.6-2.77-3.88-4.9-6.85-6.4c-2.97-1.5-6.41-2.25-10.32-2.25h-12.95v36.56H766.21z"/>
			</g>
		</g>
		<g>
			<g>
				<path class="st0" d="M1198.21,615.72v8.14h-38.16v-6.43l20.56-19.52c2.32-2.22,3.88-4.15,4.7-5.81
					c0.81-1.65,1.22-3.29,1.22-4.92c0-2.42-0.81-4.26-2.44-5.55c-1.63-1.28-4.02-1.92-7.17-1.92c-5.28,0-9.32,1.8-12.13,5.4
					l-6.73-5.18c2.02-2.71,4.74-4.82,8.17-6.32c3.43-1.5,7.26-2.26,11.5-2.26c5.62,0,10.11,1.33,13.46,3.99
					c3.35,2.66,5.03,6.29,5.03,10.87c0,2.81-0.59,5.45-1.78,7.91c-1.18,2.47-3.45,5.28-6.8,8.43l-13.83,13.16H1198.21z"/>
			</g>
			<g>
				<path class="st0" d="M1234.67,621.45c-3.25-2.1-5.82-5.15-7.69-9.17c-1.87-4.02-2.81-8.79-2.81-14.31
					c0-5.52,0.94-10.29,2.81-14.31c1.87-4.02,4.44-7.07,7.69-9.17c3.25-2.1,6.95-3.14,11.09-3.14c4.14,0,7.85,1.05,11.13,3.14
					c3.28,2.1,5.85,5.15,7.73,9.17c1.87,4.02,2.81,8.79,2.81,14.31c0,5.52-0.94,10.29-2.81,14.31c-1.87,4.02-4.45,7.08-7.73,9.17
					c-3.28,2.1-6.99,3.14-11.13,3.14C1241.62,624.6,1237.93,623.55,1234.67,621.45z M1254.53,611.65c2.14-3.06,3.22-7.62,3.22-13.68
					c0-6.06-1.07-10.62-3.22-13.68c-2.14-3.06-5.07-4.59-8.76-4.59c-3.65,0-6.55,1.53-8.69,4.59c-2.14,3.06-3.22,7.62-3.22,13.68
					c0,6.06,1.07,10.63,3.22,13.68c2.14,3.06,5.04,4.59,8.69,4.59C1249.46,616.24,1252.38,614.71,1254.53,611.65z"/>
			</g>
			<g>
				<path class="st0" d="M1331.85,615.72v8.14h-38.16v-6.43l20.56-19.52c2.32-2.22,3.88-4.15,4.7-5.81
					c0.81-1.65,1.22-3.29,1.22-4.92c0-2.42-0.81-4.26-2.44-5.55c-1.63-1.28-4.02-1.92-7.17-1.92c-5.28,0-9.32,1.8-12.13,5.4
					l-6.73-5.18c2.02-2.71,4.74-4.82,8.17-6.32c3.43-1.5,7.26-2.26,11.5-2.26c5.62,0,10.11,1.33,13.46,3.99
					c3.35,2.66,5.03,6.29,5.03,10.87c0,2.81-0.59,5.45-1.77,7.91c-1.18,2.47-3.45,5.28-6.8,8.43l-13.83,13.16H1331.85z"/>
			</g>
			<g>
				<path class="st0" d="M1368.3,621.45c-3.25-2.1-5.82-5.15-7.69-9.17c-1.87-4.02-2.81-8.79-2.81-14.31
					c0-5.52,0.94-10.29,2.81-14.31c1.87-4.02,4.44-7.07,7.69-9.17c3.25-2.1,6.95-3.14,11.09-3.14c4.14,0,7.85,1.05,11.13,3.14
					c3.28,2.1,5.85,5.15,7.73,9.17c1.87,4.02,2.81,8.79,2.81,14.31c0,5.52-0.94,10.29-2.81,14.31c-1.87,4.02-4.45,7.08-7.73,9.17
					c-3.28,2.1-6.99,3.14-11.13,3.14C1375.26,624.6,1371.56,623.55,1368.3,621.45z M1388.16,611.65c2.14-3.06,3.22-7.62,3.22-13.68
					c0-6.06-1.07-10.62-3.22-13.68c-2.14-3.06-5.07-4.59-8.76-4.59c-3.65,0-6.54,1.53-8.69,4.59c-2.14,3.06-3.22,7.62-3.22,13.68
					c0,6.06,1.07,10.63,3.22,13.68c2.14,3.06,5.04,4.59,8.69,4.59C1383.1,616.24,1386.02,614.71,1388.16,611.65z"/>
			</g>
		</g>
	</g>
</g>
</svg>
